<svg width="14" height="14" viewBox="0 0 14 14" fill="none" xmlns="http://www.w3.org/2000/svg">
<g clip-path="url(#clip0_701_15713)">
<path d="M7.00002 9.33335C8.28868 9.33335 9.33335 8.28868 9.33335 7.00002C9.33335 5.71136 8.28868 4.66669 7.00002 4.66669C5.71136 4.66669 4.66669 5.71136 4.66669 7.00002C4.66669 8.28868 5.71136 9.33335 7.00002 9.33335Z" stroke="white" stroke-width="1.4" stroke-linecap="round" stroke-linejoin="round"/>
<path d="M9.33336 4.66669V7.58336C9.33336 8.04749 9.51774 8.49261 9.84592 8.8208C10.1741 9.14898 10.6192 9.33336 11.0834 9.33336C11.5475 9.33336 11.9926 9.14898 12.3208 8.8208C12.649 8.49261 12.8334 8.04749 12.8334 7.58336V7.00002C12.8333 5.68346 12.3878 4.40564 11.5694 3.37433C10.751 2.34303 9.60785 1.61891 8.32573 1.3197C7.04362 1.02049 5.69799 1.1638 4.50765 1.72632C3.3173 2.28885 2.35226 3.2375 1.76943 4.41803C1.18659 5.59856 1.02026 6.94154 1.29746 8.22859C1.57466 9.51564 2.2791 10.6711 3.29623 11.507C4.31336 12.343 5.58336 12.8102 6.89973 12.8329C8.21611 12.8555 9.50142 12.4322 10.5467 11.6317" stroke="white" stroke-width="1.4" stroke-linecap="round" stroke-linejoin="round"/>
</g>
<defs>
<clipPath id="clip0_701_15713">
<rect width="14" height="14" fill="white"/>
</clipPath>
</defs>
</svg>
