<svg width="56" height="56" viewBox="0 0 56 56" fill="none" xmlns="http://www.w3.org/2000/svg">
<g clip-path="url(#clip0_701_20672)">
<mask id="mask0_701_20672" style="mask-type:luminance" maskUnits="userSpaceOnUse" x="0" y="0" width="56" height="56">
<path d="M56 0H0V56H56V0Z" fill="white"/>
</mask>
<g mask="url(#mask0_701_20672)">
<path d="M37.4453 48.127C35.0253 49.2037 32.3979 49.7618 29.7507 49.7618C19.2462 49.7618 10.7318 41.2419 10.7318 30.7363C10.7318 20.2307 19.2511 11.7107 29.7507 11.7107C40.2505 11.7107 48.7747 20.2307 48.7747 30.7363C48.7747 35.7544 46.814 40.3034 43.6433 43.7065L47.1745 48.3937C52.607 43.2817 56 36.0409 56 27.9951C55.995 12.5356 43.4557 0 27.9975 0C12.5394 0 0 12.5356 0 28C0 43.4645 12.5344 56 27.9975 56C32.5164 56.005 36.9712 54.9135 40.9765 52.814L37.4453 48.127Z" fill="#1087EF"/>
<path d="M18.3374 30.7313C18.3374 37.0345 23.449 42.1423 29.7508 42.1423C36.0526 42.1423 41.1641 37.0296 41.1641 30.7313C41.1641 24.433 36.0575 19.3153 29.7508 19.3153C23.4441 19.3153 18.3374 24.4231 18.3374 30.7313Z" fill="#6CB2EF"/>
</g>
</g>
<defs>
<clipPath id="clip0_701_20672">
<rect width="56" height="56" fill="white"/>
</clipPath>
</defs>
</svg>
